<svg xmlns="http://www.w3.org/2000/svg" version="1.0" width="256.000000" height="256.000000" preserveAspectRatio="xMidYMid meet" style=""><rect id="backgroundrect" width="100%" height="100%" x="0" y="0" fill="none" stroke="none"/>
<metadata>
Created by potrace 1.16, written by Peter Selinger 2001-2019
</metadata>

<g class="currentLayer" style=""><title>Layer 1</title><g transform="translate(0,256) scale(0.10000000149011612,-0.10000000149011612) " fill="#ffffff" stroke="none" id="svg_1" class="selected" fill-opacity="1">
<path d="M1226 2287 c-55 -31 -75 -71 -97 -195 -10 -59 -19 -108 -19 -109 0 -1 -13 -4 -30 -8 -37 -8 -92 -64 -109 -111 -7 -19 -31 -67 -52 -105 -47 -83 -56 -117 -35 -144 12 -17 27 -20 103 -22 85 -1 88 -2 98 -27 6 -18 5 -53 -5 -109 -24 -145 -12 -336 24 -371 25 -24 93 -138 125 -208 25 -56 26 -83 5 -134 -16 -39 -16 -87 2 -241 6 -50 -16 -149 -58 -258 -17 -44 -14 -93 11 -157 19 -48 27 -58 46 -58 15 0 26 8 31 22 6 19 7 19 16 5 14 -26 43 -20 84 15 31 28 35 36 31 67 -3 20 -12 86 -21 146 -21 148 -20 204 5 267 16 39 23 88 29 188 8 132 20 193 69 333 11 32 30 66 41 75 21 17 21 19 6 102 -31 165 -37 184 -67 233 -17 27 -28 52 -25 55 3 3 6 2 6 -2 0 -16 41 17 55 45 13 23 14 37 5 67 -5 20 -10 54 -10 75 0 30 4 37 19 37 10 0 22 7 25 16 9 23 8 26 -11 20 -15 -5 -21 6 -36 62 -9 37 -27 119 -38 182 -24 133 -52 214 -85 247 -30 30 -86 30 -138 0z" id="svg_2" fill="#ffffff" fill-opacity="1"/>
</g></g></svg>