<svg xmlns="http://www.w3.org/2000/svg" version="1.0" width="200.000000" height="200.000000" preserveAspectRatio="xMidYMid meet"><rect id="backgroundrect" width="100%" height="100%" x="0" y="0" fill="none" stroke="none"/>
<metadata>
Created by potrace 1.16, written by Peter Selinger 2001-2019
</metadata>

<g class="currentLayer" style=""><title>Layer 1</title><g transform="translate(0,200) scale(0.10000000149011612,-0.10000000149011612) " fill="#ffffff" stroke="none" id="svg_1" class="selected" fill-opacity="1">
<path d="M1043 1739 c-31 -34 -34 -60 -24 -179 9 -113 42 -212 86 -260 21 -22 22 -27 10 -44 -8 -10 -16 -24 -18 -29 -2 -6 -20 7 -41 30 -35 39 -103 73 -147 73 -9 0 -22 7 -29 15 -10 11 -9 18 4 30 20 20 21 68 1 103 -8 15 -53 65 -100 112 -47 46 -88 93 -91 102 -12 39 -22 14 -26 -64 -6 -135 3 -191 40 -243 l32 -45 -53 0 c-35 0 -68 8 -102 25 -105 51 -254 16 -327 -77 -18 -23 -54 -64 -80 -90 -27 -26 -48 -50 -48 -52 0 -2 18 0 41 4 23 4 77 2 126 -5 52 -8 98 -9 115 -4 41 11 105 50 163 98 46 38 54 41 110 40 41 0 54 -3 40 -8 -44 -18 -57 -47 -67 -143 -5 -51 -13 -109 -18 -128 -18 -70 -28 -105 -35 -122 -13 -33 21 -19 88 35 36 28 93 74 127 101 83 65 109 134 80 212 -11 29 -1 44 31 44 28 0 83 -44 106 -86 19 -34 21 -45 11 -81 -9 -39 -14 -43 -52 -51 l-41 -8 0 -47 c0 -45 -2 -49 -57 -91 -72 -57 -104 -99 -130 -172 -19 -54 -20 -74 -15 -240 3 -102 10 -190 16 -202 28 -53 25 -52 292 -52 233 0 250 1 268 19 33 33 41 88 41 271 0 172 -1 176 -29 235 -26 55 -87 124 -148 166 -16 11 -23 27 -25 64 -3 46 -5 49 -35 57 -18 5 -33 15 -33 22 0 25 41 122 63 150 22 27 23 27 59 12 51 -22 166 -23 205 -2 17 8 33 26 37 41 6 22 12 25 50 25 51 0 109 35 114 68 2 13 -4 34 -12 47 -9 13 -16 36 -16 51 0 18 -14 40 -45 71 -25 24 -45 50 -45 57 0 6 -15 26 -32 43 -26 23 -45 32 -87 36 -40 5 -62 13 -83 34 -28 27 -56 34 -188 49 -49 5 -57 4 -77 -17z" id="svg_2" fill="#ffffff" fill-opacity="1"/>
</g></g></svg>